# xmcd
#
# Track frame offsets: 
#        150
#        22952
#        44808
#        66508
#        89336
#        115203
#        136802
#        156548
#        175990
#
# Disc length: 2798 seconds
#
# Revision: 1
# Processed by: cddbd v1.5.2PL0 Copyright (c) Steve Scherf et al.
# Submitted via: ExactAudioCopy v0.95a4
#
DISCID=800aec09
DTITLE=Retrospective - Re:Search
DYEAR=2017
DGENRE=Progressive Rock
TTITLE0=Rest Another Time
TTITLE1=Right Way
TTITLE2=The End of Their World
TTITLE3=Roller Coaster
TTITLE4=Heaven is Here
TTITLE5=Look in the Mirror
TTITLE6=Last Breath
TTITLE7=Standby
TTITLE8=The Wisest Man on Earth
EXTD=
EXTT0=
EXTT1=
EXTT2=
EXTT3=
EXTT4=
EXTT5=
EXTT6=
EXTT7=
EXTT8=
PLAYORDER=
